<?xml version="1.0" standalone="no"?>
<!DOCTYPE svg PUBLIC "-//W3C//DTD SVG 20010904//EN"
 "http://www.w3.org/TR/2001/REC-SVG-20010904/DTD/svg10.dtd">
<svg version="1.0" xmlns="http://www.w3.org/2000/svg"
 width="150.000000pt" height="176.000000pt" viewBox="0 0 150.000000 176.000000"
 preserveAspectRatio="xMidYMid meet">

<g transform="translate(0.000000,176.000000) scale(0.100000,-0.100000)"
fill="#000000" stroke="none">
<path d="M960 1251 l0 -183 48 41 c26 22 110 102 187 176 l140 134 -111 1
c-61 0 -145 3 -187 6 l-77 7 0 -182z"/>
<path d="M759 1223 l-166 -178 165 -3 c91 -1 167 -1 169 1 2 2 2 84 1 181 l-3
176 -166 -177z"/>
<path d="M1263 1308 l-48 -49 73 41 c39 23 72 43 72 45 0 1 -11 5 -24 7 -19 4
-35 -6 -73 -44z"/>
<path d="M380 1180 l0 -140 83 0 c83 0 83 0 120 38 20 21 37 41 37 46 0 4 -39
50 -87 102 -76 83 -90 94 -120 94 l-33 0 0 -140z"/>
<path d="M299 1254 l-34 -35 40 3 c37 3 40 5 43 36 4 41 -6 40 -49 -4z"/>
<path d="M541 859 c79 -83 164 -173 188 -201 32 -36 46 -46 51 -36 9 15 140
376 140 383 0 3 -118 5 -261 5 l-261 0 143 -151z"/>
<path d="M844 699 l-82 -224 80 -43 c44 -24 81 -42 84 -39 2 2 3 122 2 267
l-3 263 -81 -224z"/>
</g>
</svg>
